<!DOCTYPE svg PUBLIC "-//W3C//DTD SVG 1.1//EN" "http://www.w3.org/Graphics/SVG/1.1/DTD/svg11.dtd">
<!-- Uploaded to: SVG Repo, www.svgrepo.com, Transformed by: SVG Repo Mixer Tools -->
<svg height="800px" width="800px" version="1.1" id="Capa_1" xmlns="http://www.w3.org/2000/svg" xmlns:xlink="http://www.w3.org/1999/xlink" viewBox="0 0 309.661 309.661" xml:space="preserve" fill="#000000">
<g id="SVGRepo_bgCarrier" stroke-width="0"/>
<g id="SVGRepo_tracerCarrier" stroke-linecap="round" stroke-linejoin="round"/>
<g id="SVGRepo_iconCarrier"> <g> <path style="fill:#ffffff;" d="M176.856,128.451c22.485-33.603,28.006-82.554-14.985-100.237 c-19.815-8.153-45.297-2.333-60.825,11.629c-18.754,16.861-8.126,41.881,6.026,57.197c11.922,12.907,31.111-6.375,19.227-19.227 c-23.034-24.927,19.385-32.112,35.474-19.118c18.732,15.142-3.448,51.622-17.938,66.808c-3.41,0.131-6.135,1.3-8.213,3.057 c-1.126-0.082-2.29-0.06-3.519,0.141C64.098,139.966,11.377,199.094,0.238,266.016c-1.42,8.528,3.573,17.291,13.114,17.215 c49.196-0.386,98.246-6.135,147.453-5.292c46.798,0.805,92.127,12.069,138.995,4.808c8.762-1.36,12.276-13.092,8.121-19.978 C274.307,207.035,241.053,142.93,176.856,128.451z M152.048,250.596c-40.499-0.696-80.982,3.72-121.481,5.075 c14.762-50.736,55.163-91.866,108.781-100.737c2.274-0.375,4.096-1.175,5.548-2.241c66.58-1.855,99.013,54.374,128.9,105.73 C233.329,260.615,192.438,251.292,152.048,250.596z"/> </g> </g>
</svg>