<!DOCTYPE svg PUBLIC "-//W3C//DTD SVG 1.1//EN" "http://www.w3.org/Graphics/SVG/1.1/DTD/svg11.dtd">

<!-- Uploaded to: SVG Repo, www.svgrepo.com, Transformed by: SVG Repo Mixer Tools -->
<svg fill="#ffffff" height="800px" width="800px" version="1.1" id="Layer_1" xmlns="http://www.w3.org/2000/svg" xmlns:xlink="http://www.w3.org/1999/xlink" viewBox="0 0 511.991 511.991" xml:space="preserve" stroke="#ffffff">

<g id="SVGRepo_bgCarrier" stroke-width="0"/>

<g id="SVGRepo_tracerCarrier" stroke-linecap="round" stroke-linejoin="round"/>

<g id="SVGRepo_iconCarrier"> <g> <g> <g> <path d="M64.002,256c-8.725,0-16.555,5.312-19.819,13.397L6.893,362.667h498.219l-37.291-93.269 C464.557,261.312,456.728,256,448.002,256h-21.333v-97.195c25.387-14.805,42.667-42.027,42.667-73.472 C469.335,38.272,431.063,0,384.002,0h-256C80.941,0,42.669,38.272,42.669,85.333c0,31.445,17.28,58.667,42.667,73.472V256H64.002 z M128.002,170.667c25.451,0,48.363-11.2,64-28.949c15.637,17.749,38.549,28.949,64,28.949c25.451,0,48.363-11.2,64-28.949 c15.637,17.749,38.549,28.949,64,28.949V256h-256V170.667z"/> <path d="M6.876,405.325l37.312,93.269c3.243,8.085,11.093,13.397,19.819,13.397h384c8.725,0,16.555-5.312,19.797-13.397 l37.312-93.269H6.876z"/> </g> </g> </g> </g>

</svg>