<!DOCTYPE svg PUBLIC "-//W3C//DTD SVG 1.1//EN" "http://www.w3.org/Graphics/SVG/1.1/DTD/svg11.dtd">
<!-- Uploaded to: SVG Repo, www.svgrepo.com, Transformed by: SVG Repo Mixer Tools -->
<svg fill="#ffffff" version="1.1" id="Layer_1" xmlns="http://www.w3.org/2000/svg" xmlns:xlink="http://www.w3.org/1999/xlink" width="800px" height="800px" viewBox="0 0 245 256" enable-background="new 0 0 245 256" xml:space="preserve" stroke="#ffffff">
<g id="SVGRepo_bgCarrier" stroke-width="0"/>
<g id="SVGRepo_tracerCarrier" stroke-linecap="round" stroke-linejoin="round"/>
<g id="SVGRepo_iconCarrier"> <path d="M96.58,125.53c-5.89,0-10.66,4.78-10.66,10.67c0,5.9,4.77,10.67,10.66,10.67c5.9,0,10.67-4.77,10.67-10.67 C107.25,130.31,102.48,125.53,96.58,125.53z M148.56,169.3c-7.35-3.08-15.8,0.38-18.88,7.73c-3.08,7.35,0.38,15.8,7.73,18.88 c7.34,3.08,15.8-0.38,18.88-7.73C159.37,180.83,155.91,172.38,148.56,169.3z M148.56,169.3c-7.35-3.08-15.8,0.38-18.88,7.73 c-3.08,7.35,0.38,15.8,7.73,18.88c7.34,3.08,15.8-0.38,18.88-7.73C159.37,180.83,155.91,172.38,148.56,169.3z M96.58,125.53 c-5.89,0-10.66,4.78-10.66,10.67c0,5.9,4.77,10.67,10.66,10.67c5.9,0,10.67-4.77,10.67-10.67 C107.25,130.31,102.48,125.53,96.58,125.53z M190,63.24V7h-31v27.73L122.97,1.82L1.94,110.15l18.4,20.74L39,114.04V254h167V115.08 l18.36,16.85l18.89-20.22L190,63.24z M69.55,132.85l7.03-1.19c0.52-2.3,1.43-4.45,2.65-6.39l-4.14-5.81l4.75-4.75l5.81,4.14 c1.94-1.23,4.09-2.13,6.39-2.65l1.19-7.03h6.71l1.19,7.03c2.3,0.52,4.45,1.42,6.39,2.65l5.81-4.14l4.75,4.75l-4.14,5.81 c1.22,1.94,2.13,4.09,2.65,6.39l7.03,1.19v6.71l-7.03,1.18c-0.52,2.31-1.43,4.46-2.65,6.4l4.14,5.81l-4.75,4.74l-5.81-4.13 c-1.94,1.22-4.09,2.13-6.39,2.65l-1.19,7.03h-6.71l-1.19-7.03c-2.3-0.52-4.45-1.43-6.39-2.65l-5.81,4.13l-4.75-4.74l4.14-5.81 c-1.22-1.94-2.13-4.09-2.65-6.4l-7.03-1.18V132.85z M102.24,189.33l-4.65,0.78c-0.35,1.53-0.95,2.95-1.76,4.23l2.74,3.85l-3.14,3.14 l-3.85-2.74c-1.28,0.81-2.7,1.41-4.23,1.76L86.57,205h-4.44l-0.79-4.65c-1.52-0.35-2.95-0.95-4.23-1.76l-3.84,2.74l-3.14-3.14 l2.73-3.85c-0.81-1.28-1.41-2.7-1.75-4.23l-4.66-0.78v-4.44l4.66-0.79c0.34-1.52,0.94-2.95,1.75-4.23l-2.73-3.84l3.14-3.15 l3.84,2.74c1.28-0.81,2.71-1.41,4.23-1.75l0.79-4.65h4.44l0.78,4.65c1.53,0.34,2.95,0.94,4.23,1.75l3.85-2.74l3.14,3.15l-2.74,3.84 c0.81,1.28,1.41,2.71,1.76,4.23l4.65,0.79V189.33z M170.31,187.4l8.15,5.16l-3.51,8.37l-9.39-2.2c-1.85,2.6-4.11,4.81-6.64,6.59 l2.11,9.41l-8.4,3.44l-5.08-8.2c-3.06,0.51-6.22,0.52-9.36-0.04l-5.16,8.15l-8.37-3.51l2.2-9.39c-2.6-1.85-4.81-4.11-6.59-6.64 l-9.41,2.12l-3.44-8.4l8.2-5.09c-0.51-3.06-0.52-6.22,0.04-9.36l-8.15-5.16l3.5-8.37l9.4,2.2c1.85-2.6,4.11-4.81,6.64-6.59 l-2.12-9.41l8.4-3.44l5.09,8.2c3.06-0.51,6.22-0.51,9.36,0.04l5.16-8.15l8.37,3.51l-2.2,9.39c2.6,1.85,4.81,4.11,6.59,6.64 l9.41-2.11l3.44,8.4l-8.2,5.08C170.86,181.1,170.86,184.26,170.31,187.4z M148.56,169.3c-7.35-3.08-15.8,0.38-18.88,7.73 c-3.08,7.35,0.38,15.8,7.73,18.88c7.34,3.08,15.8-0.38,18.88-7.73C159.37,180.83,155.91,172.38,148.56,169.3z M96.58,146.87 c5.9,0,10.67-4.77,10.67-10.67c0-5.89-4.77-10.67-10.67-10.67c-5.89,0-10.66,4.78-10.66,10.67 C85.92,142.1,90.69,146.87,96.58,146.87z M84.35,182.16c-2.73,0-4.95,2.22-4.95,4.95s2.22,4.94,4.95,4.94 c2.73,0,4.94-2.21,4.94-4.94S87.08,182.16,84.35,182.16z M96.58,125.53c-5.89,0-10.66,4.78-10.66,10.67 c0,5.9,4.77,10.67,10.66,10.67c5.9,0,10.67-4.77,10.67-10.67C107.25,130.31,102.48,125.53,96.58,125.53z M96.58,125.53 c-5.89,0-10.66,4.78-10.66,10.67c0,5.9,4.77,10.67,10.66,10.67c5.9,0,10.67-4.77,10.67-10.67 C107.25,130.31,102.48,125.53,96.58,125.53z"/> </g>
</svg>