<!DOCTYPE svg PUBLIC "-//W3C//DTD SVG 1.1//EN" "http://www.w3.org/Graphics/SVG/1.1/DTD/svg11.dtd">
<!-- Uploaded to: SVG Repo, www.svgrepo.com, Transformed by: SVG Repo Mixer Tools -->
<svg fill="#ffffff" height="800px" width="800px" version="1.1" xmlns="http://www.w3.org/2000/svg" viewBox="0 0 512 512" xmlns:xlink="http://www.w3.org/1999/xlink" enable-background="new 0 0 512 512" stroke="#ffffff">
<g id="SVGRepo_bgCarrier" stroke-width="0"/>
<g id="SVGRepo_tracerCarrier" stroke-linecap="round" stroke-linejoin="round"/>
<g id="SVGRepo_iconCarrier"> <g> <g> <path d="m382.3,461.2h-250.6c-43.5,0-78.9-30.9-78.9-68.8 0-31.3 24.3-58.6 59-66.5 7.5-1.7 13.4-7.5 15.3-14.9 11.9-47.5 56.5-83.3 109.9-90.6v51.1c-36,9.1-62.6,41.8-62.6,80.5 0,45.8 37.3,83.1 83.1,83.1 45.8,0 83.1-37.3 83.1-83.1 0-38.8-26.7-71.4-62.6-80.5v-50.9c53,7.5 97.2,43.3 109.1,90.5 1.9,7.5 7.8,13.2 15.3,14.9 34.8,7.9 59,35.3 59,66.5-0.2,37.8-35.6,68.7-79.1,68.7zm-124.9-151.6c23.3,0 42.2,18.9 42.2,42.2 0,23.3-18.9,42.2-42.2,42.2-23.3,0-42.2-18.9-42.2-42.2-0.1-23.3 18.9-42.2 42.2-42.2zm165.6-20.4c-20.4-60.1-77.1-102.8-145.3-110.1v-18.7c0-11.3-9.1-20.4-20.4-20.4-11.3,0-20.4,9.1-20.4,20.4v18.6c-68.5,7.1-125.6,49.9-146,110.2-47.1,15.5-79,56.4-79,103.1 0,60.5 53.7,109.7 119.7,109.7h250.6c66,0 119.7-49.2 119.7-109.7 0.1-46.6-31.8-87.5-78.9-103.1z"/> <path d="m178.8,85.2c43.3-43.3 113.8-43.3 157.2,0 12.1,12.1 24.9,4 28.9,0 8-8 8-20.9 0-28.9-59.3-59.3-155.7-59.3-214.9,0-8,8-8,20.9 0,28.9 7.9,8 20.8,8 28.8,0z"/> <path d="m199.9,106.4c-8,8-8,20.9 0,28.9 8,8 20.9,8 28.9,0 15.7-15.7 41.4-15.7 57.1,0 10.6,10.6 23.4,5.4 28.9,0 8-8 8-20.9 0-28.9-31.7-31.7-83.2-31.7-114.9,0z"/> </g> </g> </g>
</svg>