<!DOCTYPE svg PUBLIC "-//W3C//DTD SVG 1.1//EN" "http://www.w3.org/Graphics/SVG/1.1/DTD/svg11.dtd">
<!-- Uploaded to: SVG Repo, www.svgrepo.com, Transformed by: SVG Repo Mixer Tools -->
<svg fill="#ffffff" width="800px" height="800px" viewBox="0 0 16 16" id="factory-16px" xmlns="http://www.w3.org/2000/svg" stroke="#ffffff">
<g id="SVGRepo_bgCarrier" stroke-width="0"/>
<g id="SVGRepo_tracerCarrier" stroke-linecap="round" stroke-linejoin="round"/>
<g id="SVGRepo_iconCarrier"> <path id="Path_109" data-name="Path 109" d="M-6.5,16h-15a.5.5,0,0,1-.5-.5V.5a.5.5,0,0,1,.5-.5h4a.5.5,0,0,1,.5.5V8.691l5.276-2.638a.5.5,0,0,1,.487.022A.5.5,0,0,1-11,6.5V8.617l4.243-2.546a.5.5,0,0,1,.5-.006A.5.5,0,0,1-6,6.5v9A.5.5,0,0,1-6.5,16ZM-21,15H-7V7.383l-4.243,2.546a.5.5,0,0,1-.5.006A.5.5,0,0,1-12,9.5V7.309l-5.276,2.638a.5.5,0,0,1-.487-.022A.5.5,0,0,1-18,9.5V1h-3Z" transform="translate(22)"/> </g>
</svg>