<svg width="1158" height="462" fill="none" xmlns="http://www.w3.org/2000/svg"><path d="M687.8 164a15 15 0 0 0-6.6-1.6v1.9c2 0 4 .5 5.8 1.4l.8-1.7Zm5.5 4-1.4 1.3a15 15 0 0 1 3 5l1.9-.6c-.8-2.1-2-4-3.5-5.7Zm4.4 12.4h-2c0 2-.5 4-1.4 5.7l1.7.9c1-2 1.6-4.3 1.7-6.6ZM686 195.7c2.2-.7 4.2-1.9 5.9-3.4l-1.3-1.3a15 15 0 0 1-5.2 3l.6 1.7Zm-21.1-23.1a17 17 0 0 0-1.4 6.6h2c0-2 .4-4 1.2-5.9l-1.8-.7Zm4.9 17.5a15 15 0 0 1-3.3-5l-1.8.7c.8 2.1 2.1 4 3.7 5.7l1.4-1.4Zm10.8 6.5v-1.8c-2 0-4-.4-5.9-1.2l-.7 1.7c2 .9 4.3 1.3 6.6 1.3Zm-74 36.8-1.8-.3-1.4 8.3 1.9.2 1.3-8.2Zm13.2-91.9 1.9.3.7-4.2c-.7 0-1.3-.2-2-.3l-.6 4.2Zm-12.4 74.9-1.3 8.3 1.9.3 1.3-8.3-1.9-.3Zm-8.2 49.9-1.3 8.3 1.9.3 1.3-8.3-1.9-.3Zm-5.6 30.8-1.4 8.3 2 .4 1.3-8.4-2-.3Zm2.9-14.1-1.4 8.3 2 .3 1.3-8.3-1.9-.4Zm13.7-83.3-1.4 8.4 2 .3 1.3-8.4-2-.3Zm8.2-49.9-1.4 8.3 1.9.3 1.4-8.3-2-.3Zm-2.8 16.7-1.3 8.3 1.9.3 1.3-8.3-1.9-.3Zm-2.7 16.5-1.4 8.4 2 .3 1.3-8.3-1.9-.3ZM602 249.7l-1.3 8.3 1.9.3 1.4-8.3-2-.3ZM410 91.3l-.5-1.8-96.1 28.7.5 1.9L410 91.3ZM161.2 197.7l1 1.7 114-63.4-1-1.6-114 63.3Zm33.3 151.5v-1.4l-105.4-1.2v2l105.4 1.1v-.5Zm-71.8-109.1-1.7-.8-45 87.5 1.8.9 44.9-87.6Zm113.7 4.3-.1 8.1h1.9l.2-8h-2Zm-.3 16.1-.1 8 1.9.1.1-8h-1.9Zm-.3 16.1-.2 8 2 .1.1-8h-2Zm70.4-36.6-.4 1.9 7.8 1.7.4-1.9-7.8-1.7Zm-47-10.3-.4 1.8 7.8 1.8.4-2-7.8-1.6Zm-23.7 63-.2 8 2 .1.1-8h-2Zm55-56.2-.4 1.9 7.8 1.7.4-1.9-7.8-1.7Zm-15.7-3.4-.4 1.9 7.9 1.7.4-1.9-7.9-1.7Zm-23.9-3.3.4-1.9-2.5-.6-.5 1.9 2.6.6Zm104.3 45 1.6-1-2-3.6-1.7 1 2 3.6ZM503.1 178l1.5 1.3 2-2.6-1.4-1.2-2.1 2.6ZM439 270l1.6 1 1.9-3.5-1.7-.9-1.9 3.4Zm50.5-72-1.5-1.2-3 3.8 1.4 1.2 3-3.8ZM435 277l-3.8 7.1 1.7 1 3.9-7.1-1.7-1Zm-15.3 28.2-3.8 7 1.6 1 3.9-7-1.7-1Zm7.7-14-3.9 7 1.7 1 3.9-7.1-1.7-1ZM498 184.3l-5 6.3 1.5 1.2 5-6.3-1.4-1.2ZM369.2 294.5l-1.6 1 4.1 7 1.7-1-4.2-7Zm16.6 27.7-1.7 1 3 5 1.7-1-3-5ZM361 280.7l-1.7 1 4.1 7 1.7-1-4.2-7Zm16.5 27.7-1.7 1 4.2 6.9 1.6-1-4.1-7Zm34.5 10.9-3.9 7 1.7 1 3.9-7-1.7-1Zm262.6-155.8c-1 .3-2 .8-2.9 1.3L648.2 131l-1.6 1.1 23.5 33.9-1.2 1 1.4 1.4a14.8 14.8 0 0 1 5-3.2l-.7-1.7Z" fill="#8FA1AC"/><path d="M680.6 166.8a12.6 12.6 0 0 0-8 2.8 12.7 12.7 0 1 0 8-2.8Zm0 22.2a9.5 9.5 0 0 1-6.2-16.7l1.6-1.2a9.5 9.5 0 1 1 4.6 17.8v.1Z" fill="#2DA6D3"/><path d="m759.3 110.3-.1 2 8 .6.2-1.9-8-.7Zm-80.5-6.6-.2 1.9 8 .7.3-2-8.1-.6Zm109 11.7-.2 1.9 8 .7.2-2-8-.6Zm-16.1-1.4-.1 2 8 .6.2-1.9-8-.7Zm-48.1-4.1-.1 1.9 8 .7.1-2-8-.6Zm16.1 1.4-.2 1.9 8 .7.2-2-8-.7Zm-48.2-4.2-.1 2 8 .6.1-1.9-8-.7Zm-24.2-.1.2-2-5-.4c0 .6 0 1.3-.2 2l5 .3Zm40.3 1.5-.1 2 8 .6.1-2-8-.6Zm104.9 43-1.5-1.2-46.2 53.8 1.4 1.2 46.3-53.8Z" fill="#8FA1AC"/><path d="M686.6 175.3a7.2 7.2 0 1 0-11.9 8.3 7.2 7.2 0 0 0 11.9-8.3Z" fill="#197BC0"/><path d="M848.7 242.7h-2l-2.9 85.4 2 .1 2.9-85.5Zm128.6-8.7-.1 2 8 .6.2-2-8-.5Zm-16-1.1-.2 2 8 .5.2-2-8-.5Zm-48.3-3.5-.1 2 8 .5.2-2-8-.5Zm14.5-1.8v2l8 .5v-2l-8-.5Zm-54.7.8.1-2-7.5-.5c0 .7 0 1.3-.2 2l7.6.5Zm24.2-.2-.1 2 8 .5.2-1.9-8-.6Zm48.2 3.5-.1 2 8 .5.1-1.9-8-.6ZM881 227l-.2 2 8 .6.2-2-8-.5Zm112.4 8.2-.2 2 8 .5.2-1.9-8-.6Zm73.8 33.6-1.5 1.3 38.5 46.8 1.5-1.3-38.5-46.8ZM596.5 120.2l-1-1.7-64.7 34.9 1 1.6 64.7-34.8Zm-91.8 30.4 1.4-1.2-40.9-44.2-1.4 1.3 40.9 44.1Z" fill="#8FA1AC"/><path d="m531.8 155-1-1.6a17 17 0 0 0-30 3 17 17 0 0 0 15.8 23.5 17 17 0 0 0 15.2-24.9Zm-15.2 21.7a13.9 13.9 0 0 1-12.8-8.5 14 14 0 0 1 25.2-11.7 13.7 13.7 0 0 1-2.5 16.1 14 14 0 0 1-9.9 4Zm-186 47.8 1.8-.7-30.3-79.7-1.8.7 30.3 79.7Zm-104.2 0c0-.7.1-1.3.3-2l-61.4-7-.2 1.9 61.3 7Zm-16 92.4 1.6-1.2-57.5-79.5-1.5 1.2 57.4 79.5Z" fill="#8FA1AC"/><path d="M237.8 213.6a11.4 11.4 0 0 0-11.4 10.9v.4a11.4 11.4 0 0 0 11.4 11.4h.7a11.3 11.3 0 0 0-.7-22.7Zm.8 19.4a8 8 0 0 1-.8 0h-1.2a8.1 8.1 0 0 1-7-8v-.1c0-.7.1-1.3.3-2a8.1 8.1 0 1 1 13.2 8 8.2 8.2 0 0 1-4.5 2.1Zm302.1 119.2-121-5.8-.2 2 121.2 5.7v-1.9ZM264 320.1l1.3 1.4 58.3-53.4-1.4-1.3-58.2 53.3ZM12.8 290a7.2 7.2 0 1 0-1.4 1.3l38.3 41L51 331l-38.2-41Zm93-73-47.7 8.2a7.2 7.2 0 1 0 .3 1.9l47.7-8.3-.3-1.9ZM336.9 39.5a7.2 7.2 0 1 0-.7 1.8l74.4 27.5.7-1.8-74.4-27.5ZM758.1 31a7.2 7.2 0 0 0-13.2 6L657 83.5l1 1.6 87.8-46.5a7.2 7.2 0 0 0 12.3-7.5Zm-51.9 391.2a7.2 7.2 0 0 0-9.4 1.6L624 378l-1.1 1.6 72.9 45.8a7.2 7.2 0 1 0 10.4-3.2ZM294 428.8l.6.7.6.8 88.2-70.4-1.3-1.5-88.1 70.4Zm-5.6 4.5 5.5-4.5a7.3 7.3 0 1 0 1.2 1.5l-5.5 4.5-1.2-1.5Z" fill="#8FA1AC"/><path d="m294 428.8-5.6 4.5 1.2 1.5 5.6-4.5-.5-.8-.7-.7Zm252.1-53.7-.9-1.7-55 29.4a7.3 7.3 0 1 0 1 1.7l55-29.4Zm328.7-7.5-.5 1.8 137 37.2.5-1.9-137-37.1Zm-52.2 16.6-1.4-1.3-36.8 39.6a7.2 7.2 0 1 0 1.4 1.3l36.8-39.6Zm301.1 60.2a7.3 7.3 0 0 0-9 2.8l-57-25.9-.8 1.8 57 25.8a7.2 7.2 0 1 0 10-4.5Zm-196.2 5.7a7.2 7.2 0 0 0-9.4-1.5l-53.3-64.4-1.5 1.2 53.4 64.5a7.2 7.2 0 1 0 10.9.2ZM886 346.8l-7.9 1.9.5 1.9 7.8-1.9-.5-1.9Zm120.8-20.9-.3 1.9 8 1.3.2-2-7.9-1.2ZM920 341l-7.8 1.9.4 1.9 7.9-1.9-.5-1.9Zm47-11-7.8 1.9.4 1.8 7.8-1.8-.4-1.9Zm126.2 9.6-7.2-1.2-.3 2 7.4 1.1v-1.9Zm-157.5-2.2-7.9 1.8.5 1.9 7.8-1.8-.4-2Zm15.7-3.8-7.9 1.8.5 1.9 7.8-1.9-.4-1.8Zm-47.1 11.3-7.8 1.8.4 1.9 7.9-1.9-.5-1.8Zm150.1-11.4-.3 1.9 8 1.2.2-1.9-7.9-1.2Zm-31.7-5.1-.3 2 7.9 1.2.3-2-8-1.2Zm15.8 2.5-.3 2 7.9 1.2.3-2-8-1.2Zm31.7 5.1-.3 1.9 8 1.2.3-1.9-8-1.3ZM845.6 208.8l2-.2-5-48.4-1.8.2 4.8 48.4Z" fill="#8FA1AC"/><path d="m863 217.1-1-1.6a17 17 0 0 0-13.7-7h-.8a17.4 17.4 0 0 0-11.8 5.6 17 17 0 0 0 11 28.6h2a17 17 0 0 0 16.7-16.8v-.3c0-3-.8-5.9-2.3-8.5Zm-2.4 15a14 14 0 0 1-11.8 7.4h-1.9a13.9 13.9 0 0 1-8.7-23.2l1.3-1.4a13.7 13.7 0 0 1 8.4-3.1h.4a13.9 13.9 0 0 1 12.3 20.4Z" fill="#2DA6D3"/><path d="M810.7 64.6a7.2 7.2 0 1 0-1.7.9l10 20 1.7-1-10-19.9ZM591.6 63a7.2 7.2 0 0 0-8-11.2L564 13.2a7.2 7.2 0 1 0-1.7.9l19.4 38.6a7.2 7.2 0 0 0-1.6 10 7.2 7.2 0 0 0 10.1 1.7L602.7 77l1.4-1.3-12.5-12.5Zm523.9 125.1-.7-.7-.4-.9-41.7 30 1.1 1.5 41.7-29.9Zm5.8-4.1-5.8 4.1a7.3 7.3 0 1 0-1.1-1.6l5.8-4.1 1 1.5Z" fill="#8FA1AC"/><path d="m1115.5 188.1 5.8-4.2-1.1-1.5-5.8 4.1.4.9.7.7ZM153.4 99.3a9.7 9.7 0 1 0-11.6 8.8l-6.6 75.1h.3l1.6.1 6.6-75h.1a9.6 9.6 0 0 0 9.3-7l120.3 20.5c0-.6.2-1.2.4-1.9L153.4 99.3Zm-8.7 4h-.5c-.7 0-1.3 0-2-.2a4.8 4.8 0 0 1 .8-9.3h.8a4.8 4.8 0 0 1 4.8 4v.7a4.8 4.8 0 0 1-4 4.8ZM115 414.5l84.9-45.3-1-1.7-84.7 45.3a9.5 9.5 0 0 0-12.7-3.6L77.8 367l-1.7.9 23.8 42.3a9.7 9.7 0 1 0 15.6 5.8l-.5-1.5Zm-8.3 7.9a4.8 4.8 0 0 1-5.5-6 5 5 0 0 1 1-1.9 5 5 0 0 1 2.8-1.6l.9-.1a4.8 4.8 0 0 1 4 2.3c.4.5.6 1 .7 1.7a4.8 4.8 0 0 1-3.9 5.6Zm891.7-89.2a9.5 9.5 0 0 0 4.4-9.8 9.6 9.6 0 0 0-16.4-5.1l-48.7-37a12.8 12.8 0 0 0-21-14.4l-53.4-33-1 1.6 53.4 33a12.6 12.6 0 0 0 .8 13.2 12.8 12.8 0 0 0 20 1.2l48.7 36.9a9.6 9.6 0 0 0-1.4 7 9.6 9.6 0 0 0 13 7.3l27 56.3 1.7-.8-27.1-56.4ZM935 279.4a9.5 9.5 0 1 1-10.9-14.1 9.5 9.5 0 0 1 11 14.1Zm61.1 49.4a4.8 4.8 0 0 1-2.1 1 4.8 4.8 0 1 1-.9-9.6 4.8 4.8 0 0 1 4.8 4v.3c0 .6 0 1.3-.2 2-.3.9-.8 1.7-1.6 2.3Z" fill="#8FA1AC"/><path d="m982.7 326.2-7.9 1.8.5 2 7.8-2-.4-1.8Z" fill="#8FA1AC"/><path d="m933.4 271.2-.4-.6-.4-.6-.5-.5-.5-.5-.3-.3-.3-.2-.2-.2-.4-.2a6.2 6.2 0 0 0-2-.7l-.7-.1h-2.1a9 9 0 0 0-2 .7l-.6.4a5.8 5.8 0 0 0-1.1.8l-.5.6-.3.3-.2.3-.2.2-.1.4-.3.5v.2l-.3.6-.1.7-.2.7v1.4l.1.7.2.6a6.4 6.4 0 0 0 .5 1.3c.1.2.2.5.4.6a7.5 7.5 0 0 0 1.4 1.7l.3.2.3.2.2.2.4.2.6.3.7.3.7.1.7.1h2.1l.6-.2.7-.2.6-.3.6-.4a5.7 5.7 0 0 0 1.2-.9l.1-.1.4-.4.3-.3.1-.3.2-.3s0-.2.2-.2v-.1a6.1 6.1 0 0 0 .5-1.4l.2-.6.1-.7a6.9 6.9 0 0 0 0-2.1l-.2-.7a12.4 12.4 0 0 0-.5-1.2Z" fill="#23466B"/><path d="M804.7 272.2a7.2 7.2 0 0 0-13.9 3.6l-74.3 24.4c-1-2-2.4-3.9-4.4-5l20.9-40.4-1.7-.9-20.9 40.3a11.3 11.3 0 0 0-15.2 14l-67.5 28 .7 1.8 67.6-28a11.3 11.3 0 0 0 19.8.6 11.3 11.3 0 0 0 1.3-8.5l74.3-24.5a7.2 7.2 0 0 0 13.4-5.4v.1ZM710 311.8c-1.2.6-2.5 1-3.9 1a8.1 8.1 0 0 1-5.5-14 8 8 0 0 1 10-.8 8.2 8.2 0 0 1 2.5 10.8 8.1 8.1 0 0 1-3 3Z" fill="#8FA1AC"/><path d="M712 301.7c-.5-1-1.2-1.8-2.1-2.4a4.6 4.6 0 0 0-1.8-.8 6.6 6.6 0 0 0-7.8 9.6 6.6 6.6 0 0 0 7.3 3.1 6.6 6.6 0 0 0 5-7.7l-.6-1.8Z" fill="#4C8ABA"/><path d="M737 361.3a7.2 7.2 0 0 0-8.5-4.1l-17.3-42.4-1.8.8 17.3 42.3a7.2 7.2 0 1 0 10.3 3.5Zm-252.6-157 2-2.5-1.5-1.2-2 2.5 1.5 1.2ZM426 236.2c0 .6 0 1.2.2 1.9l-4.8.6-55 7.6-.3-2 55-7.5 4.8-.6Zm4.2 1.3-.3-1.9c0 .7.2 1.3.3 1.9Zm123.4 84.4-1.4 1.4-63.4-63-3.3-3.4 1.3-1.4 3.4 3.4 63.4 63Zm-11 18.7a29 29 0 0 0-.5 1.8l-59.7-17.3a7.2 7.2 0 1 1-9.6-9.9l.7-.3-7.5-43.3-.8-4.7 1.9-.3.8 4.7 7.5 43.1a7.2 7.2 0 0 1 7.7 8.9l59.5 17.3Z" fill="#8FA1AC"/><path d="m351 268 2 3.2 1.7-1-2-3.2-1.7 1Z" fill="#12AFBA"/><path d="m591 316.2-1.3 8.3 1.9.4 1.3-8.4-1.9-.3Zm0 44.2.4-.1.4-.2-.3-.2-.5.5Z" fill="#8FA1AC"/><path d="m591 360.4.4-.1.4-.2-.3-.2-.5.5Z" fill="url(#a)"/><path d="m235.2 308.8-.2 8 2 .1v-8h-1.8Z" fill="#8FA1AC"/><path d="m235.2 308.8-.2 8 2 .1v-8h-1.8Z" fill="url(#b)"/><path d="m389.9 329-1.1-1.8-1.7 1 1.1 1.9 1.7-1Zm136.2-171a10.6 10.6 0 0 0-17.1-2.7 10.7 10.7 0 1 0 17.1 2.8Zm331.4 62.2a10.4 10.4 0 0 0-4.8-4.3c-1.4-.6-2.9-1-4.4-1h-.1a10.8 10.8 0 0 0-10.6 10.7 10.7 10.7 0 0 0 10.8 10.7h.6a10.6 10.6 0 0 0 8.5-16Zm82.9-35.9a11.9 11.9 0 0 0-1.6-12.5l22.8-21.8a7.2 7.2 0 1 0 1.2-12.2l-.6.4-35-41.7a7.2 7.2 0 1 0-1.4 1.3l34.9 41.7a7.3 7.3 0 0 0-.4 9.1l-22.8 21.9a12 12 0 0 0-18.9 13.8L862 215.5c.4.6.8 1 1 1.7l56.6-31.2a12 12 0 0 0 19.9 0l67.6 37.4.9-1.8-67.6-37.3Zm-1.7-1c-.2.6-.5 1.2-1 1.7a10 10 0 1 1-1.6-13.2l1.4 1.4a10 10 0 0 1 1.3 10.1Z" fill="#8FA1AC"/><path d="M934.3 173.5a7.5 7.5 0 0 0-10.1.5 7.6 7.6 0 0 0 5.3 13 7.5 7.5 0 0 0 7.6-7.6 7.5 7.5 0 0 0-2.8-5.9Zm-175 49.1.5.8.2 1 14.7-6-.7-1.8-14.7 6Z" fill="#8FA1AC"/><path d="m486.4 201.8-1.5-1.2a39.8 39.8 0 0 0-63.7 36.2l.2 2a39.9 39.9 0 0 0 67.5 21.5l1.4-1.4a39.8 39.8 0 0 0-3.8-57v-.1Zm.4 53.7-1.3 1.4a34.8 34.8 0 0 1-59.8-24.7 35 35 0 1 1 61.2 23.3h-.1Z" fill="#2DA6D3"/><path d="M491.7 232.1a30.7 30.7 0 0 1-27.2 30.8 30.4 30.4 0 0 1-23.7-7 31 31 0 1 1 50.9-23.8Z" fill="#2DA6D3"/><path d="m486.4 201.8-1.5-1.2a39.8 39.8 0 0 0-63.7 36.2l.2 2a39.9 39.9 0 0 0 67.5 21.5l1.4-1.4a39.8 39.8 0 0 0-3.8-57v-.1Zm.4 53.7-1.3 1.4a34.8 34.8 0 0 1-59.8-24.7 35 35 0 1 1 61.2 23.3h-.1Z" fill="#2DA6D3"/><path d="M491.7 232.1a30.7 30.7 0 0 1-27.2 30.8 30.4 30.4 0 0 1-23.7-7 31 31 0 1 1 50.9-23.8Z" fill="#2DA6D3"/><path d="m837.1 212.7-10.8-9.8a6.9 6.9 0 1 0-12.5-2.1L774 216.7l.7 1.8 39.8-16a6.8 6.8 0 0 0 10.5 1.8l10.7 9.8 1.4-1.4Z" fill="#8FA1AC"/><path d="M442 114.5a33.7 33.7 0 1 0 0-67.5 33.7 33.7 0 0 0 0 67.5Z" fill="#115EA4"/><path d="M314 130a20.7 20.7 0 1 0-40.3-9.8 20.7 20.7 0 0 0 40.2 9.9Z" fill="#23466B"/><path d="M358.9 266.9A26 26 0 1 0 322 230a26 26 0 0 0 37 37Z" fill="#12AFBA"/><path d="M618 385.6a45.2 45.2 0 1 0-64-64 45.2 45.2 0 0 0 64 64Z" fill="url(#c)"/><path d="M275.6 355.6a40.8 40.8 0 1 0-80.5-13 40.8 40.8 0 0 0 80.5 13Z" fill="url(#d)"/><path d="M398.7 366.6a21 21 0 1 0 0-41.9 21 21 0 0 0 0 41.9Z" fill="#4C8ABA"/><path d="M146.4 241a30 30 0 1 0-21.8-55.8 30 30 0 0 0 21.8 55.8Z" fill="#197BC0"/><path d="M520.7 172.7a10.7 10.7 0 1 0-8.2-19.7 10.7 10.7 0 0 0 8.2 19.7Z" fill="#23466B"/><path d="M859 227.4a10.7 10.7 0 1 0-21.2-3.4 10.7 10.7 0 0 0 21.1 3.4Zm78-48a7.6 7.6 0 1 1-15 0 7.6 7.6 0 0 1 15 0ZM627.2 138a35.4 35.4 0 1 0 0-70.9 35.4 35.4 0 0 0 0 70.8Z" fill="#197BC0"/><path d="m621.8 93.2 18.8 5.6v4.1l6.2-2V96l-18-4.9" stroke="#fff" stroke-width="1.2" stroke-linecap="round" stroke-linejoin="round"/><path d="M613.4 98v-3.4l21.6-4.9 18 4.9v20.2l-18 9-21.6-7.6v-3.5m0-18.1 21.6 6.3m0 0v21.5m0-21.5 18-6.3" stroke="#fff" stroke-width="1.2" stroke-linecap="round" stroke-linejoin="round"/><path d="M866 148.9a39.9 39.9 0 1 0-56.5-56.5 39.9 39.9 0 0 0 56.4 56.5Z" fill="url(#e)"/><path d="M775.2 234.5a30.2 30.2 0 1 0-58.6-14 30.2 30.2 0 0 0 58.6 14Z" fill="#2DA6D3"/><path d="M843.7 392.1a32 32 0 1 0 0-64 32 32 0 0 0 0 64Z" fill="#23466B"/><path d="M1050.8 430.9a24.5 24.5 0 1 0-31.5-37.5 24.5 24.5 0 0 0 31.5 37.5Z" fill="#115EA4"/><path d="M1069.3 267a38.5 38.5 0 1 0-54.6-54.6 38.5 38.5 0 0 0 54.5 54.5Z" fill="#2DA6D3"/><path d="M1125.5 373.7a32.4 32.4 0 1 1 0-64.8 32.4 32.4 0 0 1 0 64.8Zm0-58.4a26 26 0 1 0 0 52.1 26 26 0 0 0 0-52.2Z" fill="url(#f)"/><path d="M1147.8 346.5a22.8 22.8 0 1 0-44.4-10.4 22.8 22.8 0 0 0 44.4 10.4Z" fill="url(#g)"/><path d="M66.6 370a22.6 22.6 0 1 0 0-45.3 22.6 22.6 0 0 0 0 45.3Z" fill="#23466B"/><path d="M558.4 361.9c.2-1.3.8-2.5 1.8-3.3.5-.6 1-1 1.7-1.4.4 3.5 1.6 15 1.3 19.8a1.1 1.1 0 0 0 1.1 1.2 1.1 1.1 0 0 0 1.2-1c.4-5.9-1.4-20.6-1.5-21.3 1-.5 2-1 3-1.3v7.4a8.3 8.3 0 0 0 8.4 8.4h10v5.9a1.7 1.7 0 0 0 1.6 1.7h27.5a1.7 1.7 0 0 0 1.7-1.7v-25.7a1.7 1.7 0 0 0-1.7-1.8H587l-.9.3a11 11 0 0 0 2-5.7h.5a2.8 2.8 0 0 0 1.8-1.4c.7-1.4 1-2.9.7-4.4v-.7a1 1 0 0 0-.8-1v-.2a11.8 11.8 0 0 0-11.3-14.4h-.2a11.8 11.8 0 0 0-11.4 14.4v.3l.2.2a1 1 0 0 0-.7.2 1 1 0 0 0-.3.7v.5a7 7 0 0 0 .8 4.4 2.9 2.9 0 0 0 1.8 1.4h.5c.1 2.3 1 4.6 2.5 6.4a9 9 0 0 0 6.4 2.7h.6a9 9 0 0 0 6.2-2.6v3c-.4-.2-.7-.2-1 0-1.6.7-3.4 1-5.3 1-3.8 0-6.3-1.3-6.3-2.2a1.1 1.1 0 0 0-1.1-1.1 1.2 1.2 0 0 0-1 .6l-1.8.6a24.5 24.5 0 0 0-10 5.4 7.5 7.5 0 0 0-2.4 4.5l-.8 15.2 1.9.1.8-15.1Zm43.4 1.5 12.5-11.7v23.4l-12.5-11.7Zm11.3 12.7h-24.7l12.4-11.7 12.3 11.7Zm-12.4-13.7-12.3-11.7h24.8l-12.5 11.7Zm-1 1-12.5 11.7v-23.4l12.4 11.7Zm-28.1-37a9.9 9.9 0 0 1 17 7.6 24 24 0 0 0-9.5-2.2 19 19 0 0 0-9.7 2.4.8.8 0 0 0 0 1 .8.8 0 0 0 .4.3.8.8 0 0 0 .6 0c2.7-1.5 5.7-2.2 8.7-2.1 3 0 6 .8 8.9 2l-2.4 2.3a14.4 14.4 0 0 0-13.5 0l-2.9-2.8a10 10 0 0 1 2.4-8.5Zm7.3 24.2a7.2 7.2 0 0 1-5.3-2.1 9.6 9.6 0 0 1-2-6.4 1 1 0 0 0-.6-.8.9.9 0 0 0-1 0h-.4c-.3 0-.5-.2-.7-.4-.5-1-.6-2.2-.4-3.3v-.7l2.9 2.7.6.2c.3 0 .5 0 .7-.2a9.4 9.4 0 0 1 5.6-1.7h1c2.1 0 4 .5 5.7 1.7l.7.2c.2 0 .5 0 .6-.2l2.8-2.6v.7c.2 1 .1 2.2-.4 3.2a1 1 0 0 1-.6.5l-.5-.1a1 1 0 0 0-1.4.8c0 2.3-.7 4.5-2.1 6.3a7.1 7.1 0 0 1-5.2 2.2Zm.2 5.6c2.1 0 4.2-.4 6.2-1.2v1.6a19 19 0 0 1-5.2.6c-5.1 0-8.7-1.8-9.2-3.5a.7.7 0 0 0-.4-.4l.4-.2c1 1.9 4.1 3.1 8.2 3.1Zm-9.6-2.6a.7.7 0 0 0 0 .6c.7 2.6 5.2 4.5 10.7 4.5 1.7 0 3.4-.2 5.1-.6v10.7h-10a6.9 6.9 0 0 1-6.8-6.8v-8l1-.4Zm454.9 54.8 6.6 6.6h8.2l6.6-6.6V401h-21.4v7.3Zm2-.3 8.2-5.4h5l-11 7.5-2.2-2Zm12.1 5.2h-5.4l11.1-7.6v2l-5.7 5.6Zm5.7-9-12.7 8.9-2.2-2.2 12.1-8.3h2.8v1.7Zm-11.5-1.6-6.7 4.4v-4.4h6.7Zm-3.4-3.2v-6.4a1 1 0 0 0-.3-.6 1 1 0 0 0-.6-.2 1 1 0 0 0-1 .8v6.4a.9.9 0 0 0 .3.8l.3.2a1 1 0 0 0 .8 0l.3-.2.2-.4v-.4Zm13.5 0v-6.4a1 1 0 0 0-.3-.6 1 1 0 0 0-.6-.2 1 1 0 0 0-1 .8v6.4a.9.9 0 0 0 .3.8s.1.2.3.2a1 1 0 0 0 .8 0l.3-.2.2-.4v-.4Zm-5.6 27.7a5.2 5.2 0 0 1-4.5 1 4.5 4.5 0 0 1-3.3-2.4 11 11 0 0 1-.8-3c0-.7-.2-1.8-1-2.1a1 1 0 0 0-.5-.1c-.2 0-.4 0-.5.2-1 .7-.7 3.4-.6 3.6.4 3.8 3.4 7.7 7.7 7.7a8.6 8.6 0 0 0 8.9-7.8 7.7 7.7 0 0 0-5-7l.4-1.9h-5.6l1 4.8h.4a4.6 4.6 0 0 1 4.9 4.1 3.9 3.9 0 0 1-1.5 2.9Zm2.5-3a5.6 5.6 0 0 0-5.6-5.1l-.5-2.7h3l-.2 1.6.4.1a6.8 6.8 0 0 1 4.6 6.2 7.5 7.5 0 0 1-7.8 6.8c-3.7 0-6.3-3.5-6.7-6.9 0-.8 0-1.7.2-2.5.2.1.3 1 .4 1.2v.5c.2 1 .5 2 1 2.9a5.6 5.6 0 0 0 4 3 6.3 6.3 0 0 0 5.4-1.4 5 5 0 0 0 1.8-3.6Zm11.3-174.4a1.8 1.8 0 0 0 2.2 1l19.8-6.7.6-.3.4-.6a1.8 1.8 0 0 0 .1-1.3l-6.3-18.5a2 2 0 0 0-.3-.6 1.9 1.9 0 0 0-1.3-.7l-.7.1-19.7 6.8a1.8 1.8 0 0 0-1 .9 2 2 0 0 0-.3.7l.1.7 6.3 18.5Zm-4-18 11.3 5.1-5.9 11-5.5-16.1Zm.8-1.4 17-5.8-5.8 10.9-11.2-5.1Zm12 7.2 11.2 5-17 6 5.7-11Zm12 3.7-11.3-5.1 5.8-11 5.5 16.1Z" fill="#fff"/><path d="m1074 244.6-23 7.6-13-38.2a2 2 0 0 0-2.5-1.4 2 2 0 0 0-1.4 1.9c0 .3 0 .6.2.8l13.2 39.2c.2.4.4.7.8 1 .3.2.7.4 1.2.4h.5l24.5-9.8c.2 0 .4-.2.5-.4v-.6l-.1-.3-.3-.2a.8.8 0 0 0-.6 0Zm-24.5 9.7h-.3l-.1-.3-13.3-39.1v-.4l.2-.2h.2l.2.1.2.2 13.2 39s0 .2.2.2l.2.2-.7.3Zm-38.2.5a6.7 6.7 0 0 0 13.4.4h7.3a7 7 0 0 0 11 4 7 7 0 0 0 2.5-4 1 1 0 0 0 1-.8v-.5l-11.6-34.1a1 1 0 0 0-.4-.5 1 1 0 0 0-.5-.2h-15.3a1 1 0 0 0-1 1v18.3c-6.6 1.3-6.7 5.2-6.7 5.3v10.5c0 .2 0 .4.2.6Zm6.7 4.3Zm20.8-1.1Zm-.7-22.5h-14.7v-11.3h10.9l3.8 11.3Zm-4.9-14.4.5 1.5h-11.1a.8.8 0 0 0-.8.8v13.2l.2.2.3.2h16.3l.5 1.3h-19.4V221h13.5Zm-14.6 19.2h21.1l1 2.6h-27.3c.5-.8 1.8-2 5.2-2.6Zm-5.6 4.2h28.1l1.2 3.5a7 7 0 0 0-10.5 5.2h-7.3a6.7 6.7 0 0 0-11.5-3v-5.7Z" fill="#fff"/><path d="M1018 252a2.8 2.8 0 0 0-2.7 3.3c0 .6.3 1 .7 1.4a2.8 2.8 0 1 0 2-4.7Zm0 4c-.2 0-.5 0-.7-.2l-.4-.5a1.2 1.2 0 0 1 .2-1.3 1.2 1.2 0 0 1 1.4-.3c.2 0 .4.2.5.4l.2.7a1.2 1.2 0 0 1-1.2 1.2Zm20.8-4.5c-.6 0-1 .2-1.5.5a2.7 2.7 0 0 0-1.1 2.8c.1.5.4 1 .8 1.4a2.7 2.7 0 0 0 4.6-2 2.8 2.8 0 0 0-2.8-2.7Zm0 4c-.3 0-.5 0-.8-.2a1.3 1.3 0 0 1-.5-1.3 1.3 1.3 0 0 1 1-1h.8l.6.5.2.7c0 .4-.1.7-.4 1-.2.2-.6.3-1 .3ZM613.7 100a1 1 0 0 0-1 1v6.3h-10.4a1 1 0 0 0 0 1.8h14.5a1 1 0 1 0 0-1.8h-2.1v-6.4a1 1 0 0 0-.3-.7 1 1 0 0 0-.7-.2Zm3.7-2a1 1 0 0 0-1-.9h-12.2a1 1 0 1 0 0 1.8h12.3a.9.9 0 0 0 .9-.9Zm3 14.2c0-.2-.2-.5-.4-.6a2 2 0 0 0-1-.3h-20l-.4.3a1 1 0 0 0-.4.3v.7l.4.3.4.2h20.5l.5-.2.3-.3v-.4Z" fill="#fff"/><path d="M612 101c0-.2 0-.4-.2-.6a.7.7 0 0 0-.5-.2h-9.9l-.3.2-.1.3a1.2 1.2 0 0 0 0 .7l.1.3.3.2.2.1h10l.2-.3.2-.3v-.3Zm-11.2 7.2a1 1 0 1 0-2.1 0 1 1 0 0 0 .6 1 1 1 0 0 0 1.5-1ZM650 113a.5.5 0 0 0 .3-.2l.1-.2v-5.8a.5.5 0 0 0 0-.4.5.5 0 0 0-.5-.2h-.2a.5.5 0 0 0-.3.6v5.6a.5.5 0 0 0 .3.5h.2Zm-1.8.8a.5.5 0 0 0 .4-.1l.1-.2v-5.9a.5.5 0 0 0-.5-.5.5.5 0 0 0-.5.6v5.6l.1.4.4.1Zm-1.7.8a.6.6 0 0 0 .6-.5v-5.6a.5.5 0 0 0-.2-.4.6.6 0 0 0-.6-.2.6.6 0 0 0-.3.6v5.6a.6.6 0 0 0 .5.5Zm478.6 213.1-6.4 2.5h-.2v8.5l.3.2 6.4 3.2h.5l6.4-3.2.2-.2.1-.3v-8.3l-.3-.2-6.4-2.3a.5.5 0 0 0-.6.1Zm.2 1 5.3 2-5.3 2.6-5-2.5 5-2Zm-.5 12.1-5.4-2.6v-6.7l5.4 2.7v6.6Zm6.4-2.6-5.4 2.6v-6.6l5.4-2.7v6.7Z" fill="#fff"/><path d="M1125.5 321a13.2 13.2 0 0 0-9.3 4 14.6 14.6 0 0 0-4.4 10.3c0 7.8 12.5 25 13 25.8a.8.8 0 0 0 .7.4h.1l.4-.1.3-.3c.5-.7 13-18 13-25.8a14.6 14.6 0 0 0-8.6-13.2c-1.7-.7-3.4-1-5.2-1Zm0 38.4c-2.4-3.6-12-17.7-12-24a13 13 0 0 1 7.6-11.8c1.4-.6 3-1 4.5-1a11.6 11.6 0 0 1 8.2 3.6 13 13 0 0 1 3.8 9.1c0 6.4-9.6 20.5-12 24Z" fill="#fff"/><path d="M1125.5 324.4a10.3 10.3 0 1 0 0 20.5 10.3 10.3 0 0 0 0-20.5Zm0 18.9a8.6 8.6 0 1 1 0-17.3 8.6 8.6 0 0 1 0 17.3ZM760.3 221.4a5.3 5.3 0 1 0 0 10.6 5.3 5.3 0 0 0 0-10.6Zm0 8.9a3.6 3.6 0 1 1 0-7.2 3.6 3.6 0 0 1 0 7.2Z" fill="#fff"/><path d="m745.8 250 .4.1h.5a.9.9 0 0 0 .9 0h.1a22 22 0 0 0 10.6-3.7l.8 1a.9.9 0 0 0 .7.4h.1a.9.9 0 0 0 .8-.4c.3-.5 9.7-13.5 9.7-19.4a11.2 11.2 0 0 0-4-8.6l-1-1.5a24.4 24.4 0 0 0-18.4-11.6h-1a21.9 21.9 0 0 0-.3 43.8ZM729 217.3c2 1 4 1.8 6.2 2.2a29 29 0 0 0-1.4 7.8h-8a20 20 0 0 1 3.2-10Zm26.6.6-.3.2h-.3c-2.7.4-5.4.7-8 .7V208c3.8 2.4 6.8 5.9 8.6 10Zm-10.4 19.5c-2.6 0-5.1.4-7.6.9a26 26 0 0 1-2-9.3h9.6v8.4Zm0 1.7v8.7c-3-2-5.3-4.7-6.9-7.9 2.3-.5 4.6-.7 7-.8h-.1Zm1.7 9.3V239c2.3 0 4.6.2 6.9.5h.2l.7 1.2a21 21 0 0 1-7.6 7.5h-.2Zm0-11V229h2.5c.7 3.1 2 6 3.5 8.8-2-.3-4-.5-6-.5Zm2.4-10H747v-6.8c1.9 0 3.9-.2 5.6-.3-1.8 1.9-3 4.3-3.1 7Zm-4.1-8.4h-.6c-2.4 0-4.8-.2-7.1-.6 1.5-4 4.2-7.3 7.7-9.7V219Zm-.6 1.7h.6v6.7h-9.6c0-2.5.5-5 1.3-7.4 2.5.5 5.1.7 7.8.6v.1Zm-10.8 8.4c.1 3.3.8 6.5 2 9.6-1.9.5-3.7 1.2-5.5 2a20.2 20.2 0 0 1-4.4-11.6h8Zm-2.3 13a27 27 0 0 1 5.1-1.8 23 23 0 0 0 6 7.7c-4.2-.7-8.1-2.8-11.1-6Zm25.8 2.8c-1.9 1.3-4 2.2-6.3 2.8 1.9-1.5 3.4-3.3 4.7-5.3l1.7 2.5Zm11.4-17c0 4.6-6.7 14.5-8.8 17.6-2.1-3-8.8-13-8.8-17.6a9.5 9.5 0 0 1 5.5-8.5c1-.4 2.1-.7 3.2-.7a8.5 8.5 0 0 1 6 2.6 9.5 9.5 0 0 1 2.9 6.6Zm-5.5-10.3a9.5 9.5 0 0 0-6-.3 25.6 25.6 0 0 0-6.3-8.6 24 24 0 0 1 12.3 8.9Zm-20.3-9.4c-3.2 2.6-5.6 6-7.1 9.7-2-.4-4-1-5.8-2 3.2-4.1 7.7-6.9 12.9-7.7ZM361 248.5a20.9 20.9 0 0 0-3-10.5.8.8 0 0 0-.6-.2.8.8 0 0 0-.7.6l.1.6a19.2 19.2 0 0 1-28 25l4-.5a.8.8 0 0 0 .5-.3.8.8 0 0 0 .2-.7.8.8 0 0 0-.7-.7h-.3l-5.9.8h-.2v.4l1.6 5a.8.8 0 0 0 .8.7h.2a.8.8 0 0 0 .6-1l-1.3-2a20.9 20.9 0 0 0 32.7-17.2Zm-21-19.3c4.5 0 8.8 1.6 12.2 4.4l-4.3.7a.8.8 0 0 0-.6 1 .8.8 0 0 0 .8.6h.1l5.7-.9.4.1a.8.8 0 0 0 .8-1l-.8-5.5a.8.8 0 0 0-1-.7.8.8 0 0 0-.5.3.8.8 0 0 0-.1.6l.4 3.4a20.9 20.9 0 0 0-30.7 27.3.8.8 0 0 0 .6.2l.3-.1a.8.8 0 0 0 .3-1.2 19.2 19.2 0 0 1 16.5-29.2Z" fill="#fff"/><path d="m331 246.8-.4.4-5.7 4.9a.6.6 0 0 0-.2.4v4a.5.5 0 0 0 .6.5H339a.5.5 0 0 0 .3-.3v-4.4a.6.6 0 0 0-.5-.6h-4.7l2.3-2.1.4-.4a6 6 0 0 0 2.1-4.6c0-2.8-2.5-5.7-7.2-5.7a9.5 9.5 0 0 0-7.2 3.2.6.6 0 0 0 0 .7l2.6 3 .4.2c.1 0 .3 0 .4-.2.8-.8 1.8-1.3 3-1.4.9 0 1.3.3 1.3.8 0 .6-.7 1.1-1.2 1.6Zm0-3.5c-1.3 0-2.4.5-3.3 1.4l-2-2.2a8.5 8.5 0 0 1 6-2.4c4 0 6.2 2.3 6.2 4.6a5 5 0 0 1-1.8 3.7 5 5 0 0 0-.4.4l-3.3 3.2a.6.6 0 0 0-.1.6.5.5 0 0 0 .5.3h5.5v3h-12.5v-3l5.6-4.9.4-.3c.8-.6 1.8-1.4 1.8-2.5-.1-.4-.3-2-2.7-2Zm17.5 7.2v-4.7a.6.6 0 0 0-.4-.5.6.6 0 0 0-.6.2l-3.4 4.7a.6.6 0 0 0 .5.9h3.3a.6.6 0 0 0 .6-.6Zm-1.1-.5h-1.8l1.8-2.5v2.5Z" fill="#fff"/><path d="M348 257h5.5a.6.6 0 0 0 .5-.3v-2h1.3a.6.6 0 0 0 .5-.6v-3.6a.6.6 0 0 0-.5-.5H354v-10.1a.6.6 0 0 0-.5-.6H348a.5.5 0 0 0-.4.2l-7.7 10.7-.1.3v3.6a.6.6 0 0 0 .5.6h7v1.8a.5.5 0 0 0 .5.5Zm-7-3.5v-2.7l7.4-10.3h4.5v10a.6.6 0 0 0 .6.6h1.2v2.5h-1.2a.6.6 0 0 0-.6.5v1.9h-4.4v-2a.6.6 0 0 0-.6-.5h-7ZM258.2 360v-16.5a9.7 9.7 0 1 0-2.8.1v16.5a5.6 5.6 0 0 1-5.6 5.5h-41.2v2.8h41.1a8.4 8.4 0 0 0 8.5-8.3Zm-10-26a8.2 8.2 0 1 1 16.5 0 8.2 8.2 0 0 1-16.5 0Z" fill="#fff"/><path d="M211.4 364.7H251a2.7 2.7 0 0 0 2.5-3.6l-9.2-26.2h-7v-.8a6.2 6.2 0 1 0-12.5 0v.8H218l-9.2 26.2a2.7 2.7 0 0 0 2.5 3.6h.1Zm-.8-3 8.8-25h7.8l-.4-1.2c-.2-.4-.2-.9-.2-1.3a4.5 4.5 0 1 1 8.9 0c0 .4-.1.9-.3 1.3l-.3 1.2h8l8.8 25a.8.8 0 0 1 0 .8.8.8 0 0 1-.8.4h-39.5a.8.8 0 0 1-.7-.4.8.8 0 0 1-.1-.8Z" fill="#fff"/><path d="M228.3 336.3h5.4l.2-.2a3.5 3.5 0 0 0 .2-3.5 3.4 3.4 0 1 0-5.9 3.5v.2Zm2.7-4.5a2.3 2.3 0 0 1 2 3.4h-4a2 2 0 0 1-.3-1 2.3 2.3 0 0 1 2.3-2.4Zm27 2.2-.1-.4 3.3-4.5-4.5 3.4h-.3a1.5 1.5 0 1 0 1.5 1.5Zm-6.3 0H249a.4.4 0 1 0 0 .8h2.6s.2 0 .2-.2l.2-.2c0-.1 0-.2-.2-.3h-.2Zm9.1.4a.4.4 0 0 0 .3.4h2.6c.1 0 .2 0 .3-.2a.4.4 0 0 0-.3-.6h-2.6a.4.4 0 0 0-.3.4Zm-4 6.9v-2.5a.4.4 0 0 0-.4-.4.4.4 0 0 0-.3.4v2.7a.3.3 0 0 0 .3.2.4.4 0 0 0 .4-.4Zm-.4-11.6a.4.4 0 0 0 .4-.4v-2.6a.4.4 0 0 0-.4-.3l-.2.1-.1.2v2.6a.4.4 0 0 0 .3.4Zm-34.2 24.9 1.8-1.9 3.5 5h5l-5.8-8 5.2-5.8h-5.2l-4.4 5.4V344h-4v13.8h4v-3Zm-1 2h-2V345h2v7.2l6-7.2h2.3l-4.2 4.7 5.1 7h-2.3l-4-5.6-3 3.1v2.5Z" fill="#fff"/><path d="M232.7 346.3a4 4 0 0 0-.8 2.8v3.7c0 1 .2 2 .8 2.7.6.8 1.4 1.4 2.3 1.7 1 .4 2.2.7 3.3.6a8 8 0 0 0 3.2-.6c1-.4 1.8-1 2.3-1.9a5 5 0 0 0 .8-2.7v-3H238v3.3h2.4c0 .2 0 .4-.2.6-.2.3-.4.5-.7.6l-1.2.2c-.5 0-.9 0-1.3-.2l-.7-.5c-.2-.2-.3-.5-.3-.8v-3.7l.3-1 .7-.5c.4-.2.8-.3 1.2-.2h1l.6.4.4.5.2.4h4.2l-.1-.7a5 5 0 0 0-3.5-3.6c-.9-.4-1.8-.5-2.7-.5a8 8 0 0 0-3.3.6c-1 .4-1.7 1-2.3 1.8Zm2.7-.9a7 7 0 0 1 2.8-.5c.8 0 1.7.1 2.5.4a4.3 4.3 0 0 1 2.6 2.3H241l-.5-.6a3 3 0 0 0-1-.5l-1.3-.2c-.6 0-1.1 0-1.6.3a2.6 2.6 0 0 0-1.6 2.5v3.7c0 .5.1 1 .4 1.4.3.4.8.7 1.2.9a5 5 0 0 0 1.7.3 4 4 0 0 0 1.6-.3 3 3 0 0 0 1.2-1c.3-.4.4-1 .4-1.5v-.7H239v-1.3h4.5v2a3.8 3.8 0 0 1-2.5 3.6 7 7 0 0 1-2.8.5c-1 0-2-.1-2.9-.5a4 4 0 0 1-1.8-1.4 3 3 0 0 1-.6-2V349c0-.7.2-1.5.6-2.2.4-.6 1-1 1.8-1.4Zm593.1-2.7a1.4 1.4 0 0 0-1.4 1.4v15.3a1.4 1.4 0 0 0 1.4 1.4H845a1.4 1.4 0 0 0 1.3-1.4V344a1.4 1.4 0 0 0-1.3-1.4h-16.4Zm7.3 9-7.1 6.7V345l7.1 6.7Zm.9.8 7 6.7h-14.1l7-6.7Zm.9-.8 7.1-6.8v13.5l-7.1-6.7Zm-1-.9-7-6.6h14.2l-7.1 6.6Zm21.4 7.7a.8.8 0 0 0 .7.3c.2 0 .4 0 .6-.2l2.8-2.5.4-.3a.9.9 0 0 0-.2-1.3l-3.5-2.4a.9.9 0 0 0-1.2.2.9.9 0 0 0 .2 1.2l1.3 1h-10.2a.9.9 0 0 0-.8.8c0 .3.1.5.3.6.1.2.3.3.5.3h10.3l-1.1 1a.9.9 0 0 0-.1 1.3Zm7.2 5.1a7.3 7.3 0 0 0-4-1.9l-1.6-.1h-30.7a11 11 0 0 0-5.3.8 7.2 7.2 0 0 0 .6 13c1 .4 2.2.6 3.4.5h33a7 7 0 0 0 4.6-12.2Zm-4.5 10.5h-33.1c-.9 0-1.8-.1-2.7-.4-.7-.3-1.3-.7-1.8-1.1a5.3 5.3 0 0 1 1.4-8.7c1-.4 2.2-.6 3.3-.6h31.8l1.4.1c1.1.2 2.2.7 3 1.4a5.3 5.3 0 0 1 .3 7.6c-1 1-2.3 1.6-3.7 1.7Z" fill="#fff"/><path d="M827.5 363.8a5 5 0 1 0 0 10 5 5 0 0 0 0-10Zm0 8.5a3.5 3.5 0 1 1 0-7 3.5 3.5 0 0 1 0 7Z" fill="#fff"/><path d="M827.5 366a2.8 2.8 0 1 0 0 5.6 2.8 2.8 0 0 0 0-5.5Zm0 4.4a1.6 1.6 0 0 1-1.5-1.9 1.6 1.6 0 0 1 2.8-.5 1.6 1.6 0 0 1-1.3 2.4Zm31.9-6.6a5 5 0 1 0 0 10 5 5 0 0 0 0-10Zm0 8.5a3.5 3.5 0 1 1 0-7 3.5 3.5 0 0 1 0 7Z" fill="#fff"/><path d="M859.4 366a2.8 2.8 0 1 0 0 5.6 2.8 2.8 0 0 0 0-5.5Zm0 4.4a1.6 1.6 0 0 1-1.5-1.9 1.6 1.6 0 0 1 2.8-.5 1.6 1.6 0 0 1-1.3 2.4Zm-23.4-6.6h-3a.8.8 0 0 0-.6.2.7.7 0 0 0-.2.6.7.7 0 0 0 .5.7h3.3a.8.8 0 0 0 .6-.2.7.7 0 0 0 .2-.5.7.7 0 0 0-.2-.6.8.8 0 0 0-.6-.2Zm12.3 0h-2.8a.8.8 0 0 0 0 1.5h2.8a.8.8 0 0 0 .5-.2.7.7 0 0 0 .3-.5.7.7 0 0 0-.3-.6.8.8 0 0 0-.5-.2Zm-6.6 0h-2.8a.7.7 0 0 0-.7.8.7.7 0 0 0 .7.7h2.8a.8.8 0 0 0 .8-.4.8.8 0 0 0-.2-.9.8.8 0 0 0-.6-.2Zm9.3 1.5h3a.8.8 0 0 0 .7-.2.7.7 0 0 0 .2-.5.7.7 0 0 0-.2-.6.7.7 0 0 0-.6-.2h-3a.8.8 0 0 0-.8.5.8.8 0 0 0 .2.8.8.8 0 0 0 .6.2Zm-15 6.7h-3a.8.8 0 0 0-.7.8.8.8 0 0 0 .7.7h3a.8.8 0 0 0 0-1.5Zm5.6 0h-2.8a.8.8 0 0 0-.8.8.8.8 0 0 0 .8.7h2.8a.8.8 0 1 0 0-1.5Zm6.6 0h-2.8a.8.8 0 0 0 0 1.5h2.8a.8.8 0 0 0 0-1.5Zm5.8 0h-3a.8.8 0 0 0-.7.8.8.8 0 0 0 .7.7h3a.8.8 0 0 0 .6-.2.8.8 0 0 0 .2-.8.8.8 0 0 0-.7-.5ZM441.6 99c1.8.5 3.8.9 5.7 1h1.7a21.3 21.3 0 0 0-.8-42.7 21.3 21.3 0 0 0-17.9 9.6 4 4 0 0 1 1.6-.3h.4A19.9 19.9 0 0 1 445 59h.2a22.5 22.5 0 0 0-7.2 9.7 28 28 0 0 1-3.5-1 5 5 0 0 1 1.2 1.9l1.8.5c-.8 2.4-1.3 5-1.4 7.5l4 1.7h7.1v2.9l1.4.6v-3.4h9.7c0 3.2-.7 6.3-2 9.3a39 39 0 0 0-4.5-.7v.3l-7.6-.3a42 42 0 0 0-4.7.7l-.4-1h-1.4l.5 1.3-2.6.8v1.5l3.3-1c1.4 3.2 3.6 5.9 6.3 8-2.2-.3-4.4-1-6.4-2l2.7 2.6Zm5.8-21.1h-9.7c.1-2.5.6-5 1.4-7.5 2.5.5 5 .7 7.6.7h.7V78Zm0-8.2h-.7c-2.4 0-4.8-.2-7.1-.6 1.5-4 4.2-7.4 7.8-9.8v10.4ZM468 78h-8a27 27 0 0 0-1.4-7.8c2.2-.4 4.3-1.2 6.3-2.2 2 3 3 6.4 3.1 10Zm-19.2-18.6c3.6 2.3 6.4 5.8 8 9.8-2.4.4-4.8.7-7.2.7h-.8V59.3Zm3 18.6h-3v-6.7h.8c2.5 0 5.1-.3 7.6-.8.9 2.5 1.3 5 1.4 7.5h-6.9Zm6.4-9.1c-1.5-3.8-4-7.2-7.2-9.7h.5a20 20 0 0 1 12.6 7.7c-1.9.9-3.9 1.6-6 2Zm1.8 10.5h8c-.1 4.3-1.7 8.4-4.3 11.8-1.9-1-3.8-1.6-5.7-2.1 1.2-3 2-6.3 2-9.6Zm-2.6 11c1.8.4 3.6 1 5.3 1.9-3 3.3-7.2 5.4-11.7 6a22 22 0 0 0 6.4-7.9Zm-8.6-1.1c2.4 0 4.8.3 7.2.8a20 20 0 0 1-7.2 8v-8.8Zm-8.4.8c2.3-.5 4.6-.7 7-.8V98a20 20 0 0 1-7-8Z" fill="#fff"/><path d="m413.6 87.8 15-.6.3 6-5 5.1a1 1 0 0 0-.3.7c0 .2 0 .4.2.6l1.5 1.4c.2.2.4.2.7.2h.3l5-2c.2.2.5.2.7.2.4 0 .7 0 1-.2l5 2h.4c.2 0 .4 0 .6-.2l1.5-1.4a.8.8 0 0 0 .3-.7 1 1 0 0 0-.3-.6l-5.2-5.1-.2-.1.1-6.3 15.2.7c.2 0 .5-.1.6-.3a1 1 0 0 0 .3-.7l-.2-1.8a.9.9 0 0 0-.5-.7l-15.1-6.3.1-6v-.2a4 4 0 1 0-7.6 0l.3 6.6-14.9 6.2a1 1 0 0 0-.5.7l-.2 1.8a1 1 0 0 0 .2.7c.2.2.5.3.7.3Zm12.5 11.6-.4-.5 3.4-3.2v.9c0 .5.1 1 .4 1.4l-3.4 1.4Zm12.5-.5-.4.5-3.6-1.4.4-1.4v-1.2l3.6 3.5Zm10.8-13.6v.3l-14.2-.6.2-5.5 14 5.8Zm-17.6-16.7c1.1 0 2 1.3 2 2.8v.1l-.6 25a1.2 1.2 0 0 1-2 .7c-.2-.2-.3-.5-.3-.8l-1.2-25c.1-1.5 1-2.8 2.1-2.8Zm-17.2 17 13.8-5.6.3 5.4-14 .6v-.3Zm454.1 37.6a1 1 0 0 0-1.4-.1l-6.7 5.3-21-10.6-5.7 1.6-6 4.4a5.1 5.1 0 0 1-4.2 1c-.5-.3-1-.7-1.2-1.1l12.9-11.7 12.4 2L867 98.6a1 1 0 0 0-1.2-1.6l-18.6 15-12.5-2-.6.5-2.7-1.4-9.8.8-14.6-9.3a1 1 0 0 0-1 1.7l15 9.7 10-.8 1.5.8-12.4 11.2.2.6a4.7 4.7 0 0 0 2.6 2.9c1.7.6 3.7.3 6-1l5.9-4.4 4.7-1.2 21 10.6c-.5 1.1-1.4 3.1-3 3l-12-5.5a1 1 0 0 0-1.4.5 1 1 0 0 0 .5 1.3l11.6 5.3a3.6 3.6 0 0 1-3.8 3.2l-9.6-4.7a1 1 0 0 0-1.2 0 1 1 0 0 0 0 1.6l.3.2 9.4 4.5a4.5 4.5 0 0 1-1.7 2.8 4 4 0 0 1-3.3.2 4.4 4.4 0 0 0-1.6-3.3 4.3 4.3 0 0 0-4-.4 4.8 4.8 0 0 0-1.6-3.3 4.3 4.3 0 0 0-3.7-.5 4.7 4.7 0 0 0-1.6-3 4.2 4.2 0 0 0-3.3-.7 5.2 5.2 0 0 0-1.5-4 4.5 4.5 0 0 0-4.4-.6h-.2l-2.6 2.9-14.9-7.2a1 1 0 0 0-.7 0 1 1 0 0 0-.7.8 1 1 0 0 0 .3.8l.3.2 14.3 7-3.4 3.7v.4a5.6 5.6 0 0 0 1.8 4.3c.6.5 1.5.8 2.3.7.7 0 1.3 0 1.9-.2a5 5 0 0 0 1.9 3.4 4 4 0 0 0 2.4.7c.5 0 1 0 1.5-.2a5 5 0 0 0 1.8 2.7c.7.4 1.5.6 2.3.6a7 7 0 0 0 2-.4c.3 1 1 2 1.8 2.5a4 4 0 0 0 2.1.6c.8 0 1.6-.2 2.4-.5l.3-.1 3.8-5.2c.8.3 1.7.5 2.6.5 1 0 2-.3 2.8-.8 1.3-1 2.3-2.5 2.5-4.2a5 5 0 0 0 3.2-1.4c.9-.9 1.5-2 1.8-3.3 3.2-.5 4.4-5 4.5-5.3l.2-.8-.3-.1 6-4.8a1 1 0 0 0 0-1.3Zm-48.9 15.3c-.6-.6-.9-1.4-.9-2.3l6.5-7.2a2.5 2.5 0 0 1 2.2.2 3.1 3.1 0 0 1 .9 2.3l-6 7.1a3 3 0 0 1-2.7 0Zm6.1 3.9c-.6-.5-1-1.1-1-1.8l5.5-6.8a2.5 2.5 0 0 1 2.1.2c.6.6.9 1.3 1 2l-5 6.5a3.1 3.1 0 0 1-2.6 0v-.1Zm5.7 3.1c-.5-.3-.9-.9-1-1.5l5.1-6.6a2.5 2.5 0 0 1 2.1.2c.6.5.9 1.1 1 1.8l-4.6 6.2a3.1 3.1 0 0 1-2.6 0Zm8.5 2.7a3 3 0 0 1-2.5 0 2 2 0 0 1-.8-1.2l4.7-6a2.4 2.4 0 0 1 2 .2c.4.4.6.9.7 1.4l-4 5.6Zm-555-35.7a15.3 15.3 0 1 1 17 25.4 15.3 15.3 0 0 1-17-25.4Z" fill="#fff"/><path d="m289 129.7-.3-1.1a.4.4 0 0 0-.2-.3h-.4l-2 2.2-.6.2a.4.4 0 0 0-.3.5l.3 1v1a.4.4 0 0 0 .2.4h.4l2.7-1.5 1.3-.2a.4.4 0 0 0 .4-.3v-.4l-1.5-1.5Zm-.4 1.6h-.1l-2.2 1.2v-.4l-.2-.8.4-.1.1-.1 1.6-1.6.1.5.1.1 1 1-.8.2Zm171.9 91.4v22a.6.6 0 0 0 .2.5.6.6 0 0 0 .5.2.7.7 0 0 0 .6-.7v-22a.7.7 0 0 0-.6-.7.6.6 0 0 0-.7.7Z" fill="#fff"/><path d="M475 240c-1.7.9-3 2.4-3.6 4.2a1 1 0 0 0 .7 1.2h.3a1 1 0 0 0 .9-.7c.4-1.4 1.5-2.2 2.8-3.1 1-.7 3-2 2.8-4.4a4.8 4.8 0 0 0-1.5-3v-9.4h-1.8v-7.5h-6v-4h-16.9v4h-6v7.5h-1.9v9.5a4 4 0 0 0-1.2 2.7c-.2 2.4 1.7 3.8 2.7 4.5 1.3.9 2.5 1.7 2.8 3a1 1 0 0 0 1 .8h.2a1 1 0 0 0 .7-1.2 7.6 7.6 0 0 0-3.6-4.2c-1.2-.9-2-1.6-2-2.7a4.4 4.4 0 0 1 2-2.8c2.4-2 4.6-4 6.8-6.1l7-6.8 7 6.9c2.2 2.1 4.4 4.2 6.8 6.2 1 .6 1.7 1.5 2 2.7 0 1-.7 1.8-2 2.7Zm-.7-15.2h-7l-5.2-5.2-.2-.1v-.9h12.5v6.2Zm-20.2-10.2h14.3v2.7H454v-2.7Zm-6.2 4h12.5v.9l-5.4 5.3h-7.1v-6.2Zm-1.8 14.4v-7h7.5l-.8.8a83.5 83.5 0 0 1-6.6 6.2Zm23.4-6-1-.9h7.5v6.9l-6.4-6Zm-12.8-15.7a.8.8 0 0 0-.8.8.8.8 0 0 0 .8.8h9a.8.8 0 0 0 .7-.5.8.8 0 0 0-.2-.8.8.8 0 0 0-.6-.3H462v-2.6h3.4a.6.6 0 0 0 .5-.8.6.6 0 0 0-.6-.4H462v-2.2a.8.8 0 0 0-.2-.5.8.8 0 0 0-.6-.3.8.8 0 0 0-.8.8v2.2H457a.6.6 0 0 0-.7.6l.2.5.5.1h3.3v2.6h-3.6Z" fill="#fff"/><path d="m485 245.7-1.8.3a4.5 4.5 0 0 1-4.8-3.5.8.8 0 0 0-.8-.7.8.8 0 0 0-.8.8 4.6 4.6 0 0 1-4.7 3.5 4.5 4.5 0 0 1-4.7-3.6.8.8 0 0 0-.9-.7.8.8 0 0 0-.7.8 4.6 4.6 0 0 1-4.7 3.4 4.5 4.5 0 0 1-4.7-3.5.8.8 0 0 0-.7-.8.8.8 0 0 0-.9.7 5 5 0 0 1-9.4-.1.8.8 0 0 0-1-.7 1 1 0 0 0-.7.8 4.6 4.6 0 0 1-4.7 3.4 5 5 0 0 1-3-1 .8.8 0 0 0-1.2.3.8.8 0 0 0 .2 1.1 7 7 0 0 0 4 1.2 6.6 6.6 0 0 0 5.6-2.9 6.5 6.5 0 0 0 5.5 3 6.6 6.6 0 0 0 5.5-2.9 6.8 6.8 0 0 0 11 .2 6.8 6.8 0 0 0 11 0 6.6 6.6 0 0 0 5.6 2.7 7 7 0 0 0 2.3-.3.8.8 0 0 0 .5-1 .8.8 0 0 0-1-.5Z" fill="#fff"/><path d="M477.8 247a.8.8 0 0 0-1 .6c-.2 1.7-2.2 3-4.6 3-2.4 0-4.5-1.4-4.8-3a.8.8 0 0 0-.5-.7.8.8 0 0 0-.8.2l-.2.5c-.4 1.7-2.4 3-4.7 3-2.4 0-4.5-1.4-4.8-3a.8.8 0 0 0-1.6-.2c-.2 1.7-2.3 3-4.7 3-2.3 0-4.4-1.4-4.7-3a.8.8 0 0 0-.9-.7c-.2 0-.4.1-.5.3a1 1 0 0 0-.3.4c-.3 1-1 1.7-2 2.2a4.3 4.3 0 0 1-3.9 0 .8.8 0 0 0-1 .7.8.8 0 0 0 .1.6l.3.2a5.9 5.9 0 0 0 5.3-.1c.8-.4 1.5-1 2-1.7a6.7 6.7 0 0 0 5.6 2.7 6.8 6.8 0 0 0 5.4-2.4 7.3 7.3 0 0 0 11.2 0 6.8 6.8 0 0 0 5.5 2.6c3.2 0 5.9-1.8 6.3-4.3a.8.8 0 0 0-.7-1Zm-350.4-27.6-1.8 1a.6.6 0 0 0 .3 1h.3l1.8-1a.6.6 0 0 0 .2-.8.6.6 0 0 0-.8-.2Zm-7 4-1.7 1a.6.6 0 0 0-.3.3.6.6 0 0 0 0 .4.5.5 0 0 0 .5.3h.3l1.8-1a.6.6 0 0 0 0-1 .6.6 0 0 0-.6 0Zm3.5-2-1.7 1a.6.6 0 0 0-.3.6.6.6 0 0 0 .5.5h.3l1.8-1a.6.6 0 0 0 .2-.4.6.6 0 0 0 0-.4.6.6 0 0 0-.6-.4h-.2Z" fill="#fff"/><path d="m154 205-.3.2v-.2l-11.6-3.2a.7.7 0 0 0-1 .5.7.7 0 0 0 .6.9l10.1 2.8-16.3 6.8-16.4-6.8 8.4-2.5a.7.7 0 0 0 .5-.6.7.7 0 0 0-.3-.7.7.7 0 0 0-.6-.1l-9.8 3h-.4l-4.1 7 3.5 1.6v12.6L135 235h.7l18.9-8.8v-12.6l3.5-1.6-4.1-7Zm-.5 1.9 2.7 4.5-16.8 7.5-2.8-5 16.9-7Zm-36 0 17 7-2.9 5-14-6.3a.6.6 0 0 0-.5-.2l-2.2-1 2.6-4.5Zm.2 7.3 14.5 6.6 2.5-4.5v16.9l-17-7.8v-11.2Zm35.6 11.2-17.2 7.9v-17.2l2.7 4.7 14.5-6.6v11.2Z" fill="#fff"/><path d="m143 220.4 1.8 1h.3a.6.6 0 0 0 .5-.3.6.6 0 0 0-.3-.7l-1.7-1a.6.6 0 0 0-.8.2v.3a.6.6 0 0 0 0 .4l.2.1Zm3.5 2 1.8 1h.3a.5.5 0 0 0 .5-.3.6.6 0 0 0-.2-.8l-1.8-1a.6.6 0 0 0-.8.2.6.6 0 0 0 .2.9Zm3.5 2 1.8 1h.3a.6.6 0 0 0 .5-.4.6.6 0 0 0-.3-.6l-1.7-1a.6.6 0 1 0-.6 1Zm-15-32.2a.9.9 0 0 0-1 .9v14.2l-3-3.6a.9.9 0 0 0-1.2 0 .9.9 0 0 0-.2 1.1l4.7 5.3a.8.8 0 0 0 .6.2.8.8 0 0 0 .8-.5l4.5-5 .2-.3a.9.9 0 0 0-1-1.2.8.8 0 0 0-.5.3l-3.1 3.5v-14a.9.9 0 0 0-.9-1Zm281.5 159.1-4.8-2.3v-12.4a3 3 0 0 0-3-3h-20a3 3 0 0 0-3 3V349l-3.6 2.4a1.6 1.6 0 0 0-.1 2.6c.3.2.6.3 1 .3h32.7a1.6 1.6 0 0 0 .8-3Zm-5.3-1.6 2.9 1.4h-30l2-1.4h25.1Zm-1.8-1H388v-12a.8.8 0 0 1 .7-.8h20a.8.8 0 0 1 .7.7v12Zm-22.6-12a2 2 0 0 1 2-2h19.8a1.9 1.9 0 0 1 2 2v12h-.5v-12a1.4 1.4 0 0 0-1.5-1.4h-19.9a1.4 1.4 0 0 0-1.4 1.3v12h-.5v-12Zm29 16.6h-32.9a.7.7 0 0 1-.7-.7.7.7 0 0 1 .7-.7H416l.3.3v.4a.7.7 0 0 1 0 .5.7.7 0 0 1-.6.2Z" fill="#fff"/><path d="M401.2 352.3h-3.7a.5.5 0 0 0-.4 0 .5.5 0 0 0 0 .8.5.5 0 0 0 .4 0h3.7a.5.5 0 0 0 .5-.2.5.5 0 0 0 0-.4l-.1-.1a.5.5 0 0 0-.4-.1Zm.5-10.3-2-1.5h3.3v-.3a3 3 0 0 0-.8-2.2c-.6-.6-1.3-.9-2-1v-.7H398v.8c-.7 0-1.3.4-1.8.8a2.2 2.2 0 0 0-1 1.7 3 3 0 0 0 1.5 2.4l1.7 1.3h-3.3v.7c0 .8.2 1.7.8 2.3a3 3 0 0 0 2 .8v1h2.1v-1a4 4 0 0 0 2-.7 2.3 2.3 0 0 0 1-2c0-.4-.2-.9-.5-1.3-.2-.4-.5-.7-1-1Zm0 3.8c-.6.4-1.2.7-2 .7h-.2v.9h-.8v-.9h-.3a3 3 0 0 1-2-.7 2.4 2.4 0 0 1-.5-1.8h2.2c0 1.1.7 1.2 1 1.2a1 1 0 0 0 .8-.3c.2-.2.3-.4.3-.7 0-.2-.2-.5-.7-.9l-2.3-1.8a2.4 2.4 0 0 1-1.2-1.9 1.5 1.5 0 0 1 .7-1.2c.5-.4 1.1-.6 1.8-.7h.2v-.7h.8v.7h.3a3 3 0 0 1 1.9.8c.3.3.6.8.6 1.3H400v-.2a.7.7 0 0 0-.4-.5l-.6-.2c-.3 0-.5 0-.7.2a.7.7 0 0 0-.4.6c0 .3.3.7 1 1.2l2.3 1.7.8.9a1.9 1.9 0 0 1 .1 1.8l-.5.5Zm-3-1.9v-.3l.4.3.4.4-.1.2-.3.1c-.1 0-.4 0-.4-.7Zm.7-3.5-.7-.7h.6l.1.7ZM55.7 360.8h.5v-.3h.1v-17.7h20.2v17.7h.7v-18.4H55.7v18.7Z" fill="#fff"/><path d="M84.4 343.1 81 340l-.1-.1-14.1-7.6a.5.5 0 0 0-.5 0H66l-14 7.6h-.2l-3.2 3.3a.6.6 0 0 0-.1.7.6.6 0 0 0 .5.3h4.5v16.4a.6.6 0 0 0 1 0v-16.9a.6.6 0 0 0-.5-.6h-3.7l2.2-2.2 14-7.4 13.9 7.4 2.2 2.2H79a.6.6 0 0 0-.6.6v17a.6.6 0 0 0 1.1 0V344H84a.6.6 0 0 0 .4-1Z" fill="#fff"/><path d="M73.5 351.2h-3.1l.1-.5V344a1 1 0 0 0-.9-1h-7.2a1 1 0 0 0-1 1v6.7l.2.5h-3.8a1 1 0 0 0-1 1v6.7a1 1 0 0 0 1 1h7.3c.2 0 .4-.1.5-.3.2.2.4.2.6.2h7.3a1 1 0 0 0 .9-.9v-6.8a1 1 0 0 0-1-.9Zm-4-1-3-2.9 3-2.9v5.9Zm3.4 2-3.1 2.9-3-3h6Zm-7-5.3-3-3H69l-3 3Zm-.5.4-3.1 3v-5.9l3.1 3Zm.5.5 3.1 3h-6l3-3Zm-1.4 4.3-3 3-3.2-3h6.2Zm-3.6 3.4-3 3v-6l3 3Zm.5.5 3.1 2.9h-6.2l3.1-2.9Zm.5-.5 3.2-3v6l-3.2-3Zm4.3-3 3.1 3-3 3v-6Zm3.6 3.5 3.1 2.9h-6.1l3-2.9Zm.5-.5 3.2-3v6l-3.2-3Z" fill="#fff"/><defs><linearGradient id="a" x1="540.7" y1="360.2" x2="631.2" y2="360.2" gradientUnits="userSpaceOnUse"><stop stop-color="#698EC7"/><stop offset="1" stop-color="#3C427F"/></linearGradient><linearGradient id="b" x1="194.5" y1="312.9" x2="276.1" y2="312.9" gradientUnits="userSpaceOnUse"><stop stop-color="#88BCE1"/><stop offset="1" stop-color="#2F8C91"/></linearGradient><linearGradient id="c" x1="540.7" y1="353.6" x2="631.2" y2="353.6" gradientUnits="userSpaceOnUse"><stop stop-color="#698EC7"/><stop offset="1" stop-color="#3C427F"/></linearGradient><linearGradient id="d" x1="215.2" y1="320.6" x2="257.7" y2="381.1" gradientUnits="userSpaceOnUse"><stop stop-color="#88BCE1"/><stop offset="1" stop-color="#2F8C91"/></linearGradient><linearGradient id="e" x1="797.8" y1="120.6" x2="877.6" y2="120.6" gradientUnits="userSpaceOnUse"><stop stop-color="#8BA3E1"/><stop offset="1" stop-color="#2B74A2"/></linearGradient><linearGradient id="f" x1="1093.1" y1="341.3" x2="1158" y2="341.3" gradientUnits="userSpaceOnUse"><stop stop-color="#8CDADE"/><stop offset="1" stop-color="#6AAEB0"/></linearGradient><linearGradient id="g" x1="1102.8" y1="341.2" x2="1148.4" y2="341.2" gradientUnits="userSpaceOnUse"><stop stop-color="#8CDADE"/><stop offset="1" stop-color="#6AAEB0"/></linearGradient></defs></svg>